<svg width="210mm" height="297mm" version="1.1" viewBox="0 0 210 297" xml:space="preserve" xmlns="http://www.w3.org/2000/svg"><path d="m85.88 206.3c-0.4071-0.21234-1.9377-1.6404-3.4014-3.1734l-2.6612-2.7873h-1.2846c-2.1098 0-6.5778-0.54398-8.9507-1.0898-5.1572-1.1862-8.6265-3.1743-12.595-7.2177-3.812-3.8837-6.1346-8.095-7.1226-12.914-0.55243-2.6948-0.55697-9.1326-0.0087-12.28 0.87406-5.0166 4.008-10.825 8.0573-14.933 1.3824-1.4025 3.0565-2.9154 3.7201-3.3621 3.2521-2.1889 7.7059-3.8985 11.758-4.5134 1.0186-0.15458 4.7096-0.34949 8.2021-0.43314 8.4146-0.20154 11.51-0.41021 11.507-0.7757-0.0014-0.1611-0.29886-0.92933-0.66097-1.7072-0.97805-2.101-3.7347-4.7701-8.2-7.9395-2.1828-1.5494-4.9276-3.7695-6.0995-4.9337-3.9601-3.9338-7.5229-10.256-9.2443-16.404-0.52969-1.8918-1.2135-4.154-1.5197-5.0271-1.1032-3.1463-3.0581-5.3547-5.4671-6.1758-1.3437-0.45799-3.7261-0.37069-5.3762 0.19701-2.5356 0.87238-4.1956 1.095-8.9474 1.1999-2.761 0.061-6.2957 0.3367-8.782 0.68506-2.3878 0.33455-4.5608 0.50805-5.0989 0.4071-2.3132-0.43395-3.9288-3.1456-3.9515-6.6321-0.01463-2.2467 0.33748-3.2717 1.5066-4.3856 1.0698-1.0193 1.6367-1.2799 4.2741-1.9652 3.7205-0.96667 5.9306-2.0971 9.5476-4.8834 5.1872-3.9959 6.361-4.4204 13.229-4.7849 6.0243-0.3197 10.3-0.71933 12.832-1.1994 1.0914-0.20691 2.0141-0.37622 2.0505-0.37624 0.03638-3e-5 0.06615 0.19032 0.06615 0.42299 0 0.9299-1.0156 2.4613-3.0149 4.5463-1.2116 1.2635-1.9983 2.2845-1.8582 2.4115 0.13363 0.12117 1.4336 1.0298 2.8888 2.0192 3.665 2.4919 5.2401 3.8719 6.5865 5.7704 1.6793 2.368 2.628 4.4067 3.7161 7.986 2.3808 7.8308 2.8869 9.1977 4.2184 11.391 2.372 3.9073 3.3018 4.7831 11.036 10.395 0.48171 0.34953 0.49196 0.24788 0.3334-3.3073-0.46353-10.394 1.7648-16.504 9.633-26.416 5.0666-6.3828 6.0852-10.784 3.1704-13.699l-1.0563-1.0563-1.8855 0.14759c-1.037 0.0812-2.838 0.32369-4.0022 0.53892-1.1642 0.21522-3.6645 0.52644-5.5563 0.69159-1.8918 0.16515-4.8683 0.54536-6.6146 0.8449-3.6677 0.62914-5.4784 0.5394-7.2221-0.35791-1.6937-0.8716-2.654-2.1747-3.0089-4.0829-0.70855-3.81 0.69907-6.1951 4.3926-7.4428 2.5183-0.8507 8.4809-4.0253 10.811-5.7558 4.3354-3.2202 6.2351-3.9613 15.93-6.2145 3.638-0.84553 6.9498-1.6676 7.3594-1.8268 0.94129-0.36579 0.97496-0.36349 0.97496 0.06641 0 0.58068-1.9524 3.4272-3.8175 5.5657-0.95633 1.0965-1.7388 2.0566-1.7388 2.1336 0 0.07692 0.42914 0.31916 0.95365 0.53831 3.4305 1.4333 7.4396 5.2726 9.1068 8.721 1.5479 3.2016 1.9546 5.1913 1.9503 9.5408-8e-3 8.5141-1.9819 13.45-8.8331 22.093-2.7885 3.5177-4.8429 7.3726-5.4287 10.186-0.58349 2.8027-0.49014 6.4925 0.27639 10.925l0.15055 0.87052 1.772-1.6306c0.97457-0.89681 3.3198-2.7367 5.2115-4.0887 3.4861-2.4913 5.2461-4.1204 7.2593-6.7191 1.6563-2.1381 2.0091-2.9787 3.703-8.8243 1.8758-6.473 2.334-7.6574 3.8984-10.076 1.5478-2.3926 3.4829-4.2585 7.1718-6.9152 1.6165-1.1642 2.9461-2.1962 2.9548-2.2933 9e-3 -0.0972-0.89533-1.1092-2.0089-2.249-2.1785-2.2297-2.9999-3.3682-3.0014-4.1598-8.9e-4 -0.45173 0.146-0.48395 1.5204-0.33353 4.1269 0.45169 10.152 0.9742 13.957 1.2104 6.2251 0.38645 8.3091 1.0929 12.832 4.35 3.3939 2.444 6.7248 4.1137 10.054 5.0399 3.1685 0.8815 4.4067 1.7092 5.3797 3.5963 0.66373 1.2873 0.73269 1.6457 0.60284 3.1331-0.1644 1.8834-1.1468 4.286-2.2047 5.3919-1.3825 1.4452-2.3707 1.4946-8.9372 0.44675-2.2546-0.35981-4.5259-0.50669-7.8352-0.50673-5.1029-6e-5 -6.6531-0.20277-9.1308-1.194-2.1928-0.87725-3.3519-0.84167-5.3658 0.16468-2.8003 1.3994-3.9361 3.2503-5.5834 9.0991-1.3802 4.9006-2.1403 7.044-3.374 9.515-2.6883 5.3844-6.3678 9.0649-14.921 14.925-2.7543 1.8871-4.8385 4.1319-5.795 6.2414-0.42851 0.94505-0.7791 1.8875-0.7791 2.0943 0 0.4154 2.0132 0.55886 11.774 0.839 8.2127 0.2357 11.003 0.68973 15.29 2.4882 5.7482 2.4111 10.343 6.8073 13.409 12.829 2.5931 5.0933 3.277 8.1434 3.2663 14.568-7e-3 4.014-0.0964 5.0891-0.57105 6.8406-0.63473 2.3424-2.4772 6.397-3.7427 8.2364-2.685 3.9025-7.7721 7.9241-12.083 9.5524-2.863 1.0813-5.1232 1.4724-9.5933 1.6596l-4.3435 0.18195-2.668 2.8024c-2.9686 3.1181-3.3745 3.4026-4.8542 3.4026-1.5133 0-3.0424-1.1421-6.6858-4.9935-4.7464-5.0174-5.195-5.8353-4.2598-7.7657 0.67505-1.3935 3.3315-4.6362 6.2066-7.5764 4.4849-4.5864 5.0404-4.7001 8.6333-1.7667 2.6992 2.2039 3.2434 2.4008 6.5085 2.3556 6.3708-0.0881 11.668-4.0822 13.462-10.151 0.51016-1.7252 0.57624-5.4474 0.1296-7.3001-1.2245-5.0794-5.5148-9.3528-10.591-10.549-2.5468-0.60033-62.753-0.59976-65.3 6.2e-4 -3.9377 0.92819-7.8748 4.129-9.6318 7.8307-2.3174 4.8822-2.0199 9.3461 0.91673 13.754 2.6221 3.936 6.7926 6.0536 11.922 6.0536 3.0399 0 3.7821-0.24935 5.632-1.892 3.0508-2.7091 3.719-2.8848 5.7799-1.5197 2.0755 1.3748 8.3006 8.5596 9.5353 11.005 0.96796 1.9174 0.31388 3.0534-4.7757 8.2942-4.4378 4.5698-5.7386 5.3184-7.5756 4.3603zm-34.541-114.47c1.535-0.32918 2.8696-1.4117 2.8696-2.3274 0-0.88419-0.92929-1.6079-2.0647-1.6079-1.2693 0-3.3757 1.0375-4.5352 2.2339-0.73297 0.75623-0.83344 0.98901-0.56598 1.3113 0.56642 0.6825 2.2291 0.83348 4.2963 0.39013zm114.11-9e-3c0.87208-0.39734 0.85427-1.0137-0.0537-1.8582-1.7355-1.6141-3.5008-2.2251-5.1549-1.7842-1.244 0.33158-1.5864 0.92013-1.1454 1.9689 0.4192 0.99697 0.98038 1.4643 2.0686 1.7226 1.3304 0.31584 3.54 0.29051 4.2854-0.0491zm-62.694-21.151c1.9258-0.52491 3.01-2.1611 2.099-3.1676-0.63668-0.70352-2.4525-0.91006-3.6398-0.41399-1.2225 0.51078-2.7624 1.6745-3.1336 2.3679-0.65824 1.2299 2.0422 1.9311 4.6743 1.2137z"/></svg>
